<?xml version="1.0" standalone="no"?>
<!DOCTYPE svg PUBLIC "-//W3C//DTD SVG 20010904//EN"
 "http://www.w3.org/TR/2001/REC-SVG-20010904/DTD/svg10.dtd">
<svg version="1.0" xmlns="http://www.w3.org/2000/svg"
 width="225.000000pt" height="225.000000pt" viewBox="0 0 225.000000 225.000000"
 preserveAspectRatio="xMidYMid meet">

<g transform="translate(0.000000,225.000000) scale(0.100000,-0.100000)"
fill="#000000" stroke="none">
<path d="M765 2005 c-5 -2 -22 -6 -37 -9 -40 -9 -48 -53 -48 -267 l0 -186 -40
-28 c-54 -37 -102 -92 -158 -178 -25 -40 -98 -135 -161 -212 -131 -160 -250
-317 -285 -378 -14 -23 -28 -64 -31 -92 -6 -42 -3 -55 17 -85 45 -66 145 -105
348 -135 149 -22 208 -43 446 -162 119 -59 230 -107 253 -110 55 -7 93 10 142
65 44 51 125 204 135 257 l6 35 123 0 122 0 94 -44 c194 -90 298 -87 365 12
12 17 25 48 28 68 5 23 21 49 46 73 50 48 68 106 52 168 -12 44 -12 45 26 91
l39 47 -119 206 -118 206 14 41 15 41 -108 92 -107 93 19 80 c25 105 21 213
-9 253 -40 53 -91 39 -225 -62 l-74 -55 -235 0 -235 0 -24 35 c-29 43 -105
100 -157 119 -45 15 -104 26 -119 21z m763 -651 c12 -4 22 -13 22 -21 0 -11
-7 -13 -26 -9 -24 6 -26 5 -20 -16 3 -13 6 -26 6 -29 0 -7 46 -29 60 -29 18 0
40 33 40 61 0 30 6 34 29 20 10 -6 12 -20 8 -46 -13 -79 -69 -96 -148 -47 -43
28 -99 85 -99 102 0 14 89 24 128 14z"/>
</g>
</svg>
