<?xml version="1.0" standalone="no"?>
<!DOCTYPE svg PUBLIC "-//W3C//DTD SVG 20010904//EN"
 "http://www.w3.org/TR/2001/REC-SVG-20010904/DTD/svg10.dtd">
<svg version="1.0" xmlns="http://www.w3.org/2000/svg"
 width="212.000000pt" height="238.000000pt" viewBox="0 0 212.000000 238.000000"
 preserveAspectRatio="xMidYMid meet">

<g transform="translate(0.000000,238.000000) scale(0.100000,-0.100000)"
fill="#000000" stroke="none">
<path d="M1006 2373 c-31 -8 -919 -522 -945 -546 -13 -12 -32 -40 -42 -62 -17
-37 -19 -76 -19 -565 0 -342 4 -538 11 -563 6 -22 25 -54 42 -73 19 -20 218
-141 487 -296 l455 -262 65 0 65 0 455 262 c270 156 468 276 487 296 17 19 36
51 42 73 14 50 15 1054 1 1104 -20 73 -58 99 -529 370 -407 234 -459 261 -505
264 -28 2 -60 1 -70 -2z m220 -499 c153 -33 294 -127 402 -268 53 -69 67 -52
-124 -161 l-134 -77 -50 56 c-31 33 -74 66 -108 83 -50 25 -68 28 -152 28 -84
0 -101 -3 -150 -28 -75 -39 -133 -98 -167 -171 -24 -53 -28 -73 -28 -151 1
-107 21 -159 87 -231 64 -69 145 -106 243 -112 114 -6 179 20 264 105 l64 64
132 -76 c187 -108 174 -93 135 -150 -145 -210 -409 -328 -659 -295 -103 14
-235 62 -314 114 -293 195 -397 583 -241 901 140 286 475 441 800 369z"/>
</g>
</svg>
